<svg xmlns="http://www.w3.org/2000/svg" height="512px" viewBox="0 0 480 480" width="512px">
  <path d="m16 0h-16v472c0 4.417969 3.582031 8 8 8h472v-16h-464zm0 0" fill="#cadaed"/>
  <path d="m80 96c26.507812 0 48-21.492188 48-48s-21.492188-48-48-48-48 21.492188-48 48c.027344 26.5 21.5 47.972656 48 48zm0-80c17.671875 0 32 14.328125 32 32s-14.328125 32-32 32-32-14.328125-32-32 14.328125-32 32-32zm0 0" fill="#cadaed"/>
  <path d="m240 336c53.019531 0 96-42.980469 96-96s-42.980469-96-96-96-96 42.980469-96 96c.058594 52.996094 43.003906 95.941406 96 96zm0-176c44.183594 0 80 35.816406 80 80s-35.816406 80-80 80-80-35.816406-80-80c.046875-44.164062 35.835938-79.953125 80-80zm0 0" fill="#cadaed"/>
  <path d="m384 0h72v16h-72zm0 0" fill="#cadaed"/>
  <path d="m384 24h96v16h-96zm0 0" fill="#cadaed"/>
  <path d="m432 48h48v16h-48zm0 0" fill="#cadaed"/>
  <path d="m384 48h40v16h-40zm0 0" fill="#cadaed"/>
  <path d="m384 72h96v16h-96zm0 0" fill="#cadaed"/>
  <path d="m432 96h48v16h-48zm0 0" fill="#cadaed"/>
  <path d="m384 96h40v16h-40zm0 0" fill="#cadaed"/>
  <path d="m464 0h16v16h-16zm0 0" fill="#cadaed"/>
  <path d="m424 456c26.507812 0 48-21.492188 48-48s-21.492188-48-48-48-48 21.492188-48 48c.027344 26.5 21.5 47.972656 48 48zm0-80c17.671875 0 32 14.328125 32 32s-14.328125 32-32 32-32-14.328125-32-32 14.328125-32 32-32zm0 0" fill="#cadaed"/>
</svg>
